<svg width="192" height="77" fill="none" xmlns="http://www.w3.org/2000/svg"><g clip-path="url(#clip0)" fill="#fff"><path d="M14.649 45.554c1.487-1.43 2.711-3.182 4.499-4.703.577-.494 1.34-1.056 2.025-.988 2.28.24 1.017 4.98 1.017 6.89 0 2.523.586 4.283 1.464 5.901.262.48 1.07 1.04.562 1.752-1.464.098-2.696-.838-3.374-1.752-1.286-1.73-1.579-4.89-1.687-7.983-.917.397-1.687 1.565-2.588 2.62-.786.922-1.803 1.91-2.365 2.847-.693 1.16-1.063 3.475-2.357 3.61-.77.082-1.294-.652-1.687-1.206 2.188-7.931 3.76-10.373 2.796-20.003.355-.33.67-.899 1.687-.652 1.38.33 1.356 2.202 1.464 4.044.331 5.946-.894 4.913-1.456 9.623zM131.563 77c-.815-.558-.933-1.425-.866-2.682.118-2.16.681-4.415 1.184-6.538 1.414-5.922 3.413-12.123 4.864-18.023-.548.074-.925.661-1.407 1.073-.895.771-1.858 1.63-3.131 2.248-.748.36-2.081.933-2.813.323-.652-.55-.304-2.167-.112-3.32.474-2.8.637-4.093 1.296-6.76.304-1.205.459-2.52 1.407-2.579.74-.044.91.47 1.295.963-.481 2.917-1.192 5.606-1.51 8.691 2.036-.94 3.48-2.277 5.079-3.864.414-.412 1.103-.948 1.406-1.499.385-.713.526-1.895.867-2.895.74-2.174 1.532-4.518 2.591-6.539.429-.815.881-1.733 1.947-1.719 1.369.022 1.836 2.087 1.51 3.644-.644 3.123-3.339 5.327-4.649 7.935-.718 1.425-1.029 3.145-1.511 4.827-2.28 7.979-4.738 16.796-5.73 25.531-.437.522-.77 1.161-1.717 1.183zm-29.891-36.417c-.839 1.113-1.53.038-2.471 0-.964-.038-1.898.644-2.471 1.105-1.383 1.106-3.405 3.99-3.648 6.52-.162 1.687.316 3.944 1.824 4.087.492.053 1.287-.212 1.72-.439 1-.522 2.7-2.612 3.111-4.308.258-1.052.28-2.27-.323-3.096-1.692-.31-1.236 3.422-2.574 3.422-.97.008-1.199-2.324-.964-3.316.383-1.643 2.266-3.195 4.509-2.87 2.14.917 2.772 4.346 1.721 7.072-.39 1.007-1.457 2.574-2.258 3.422-.964 1.022-2.332 1.855-3.545 2.097-1.507.303-2.934.098-3.86-.659-.979-.81-1.766-2.483-1.935-3.649-.441-3.12.72-5.489 2.147-7.624 1.03-1.544 2.427-3.081 3.648-3.763 1.949-1.067 5.258-.878 5.369 2zM8.054 44.096c-.036-1.163 1.006-1.908.42-3.048-.442-.857-2.02-.507-2.751-.112-1.665.924-3.33 4.092-2.953 6.96.224 1.752 1.368 3.235 3.279 3.377 1.114.082 2.244-.507 3.489-.328-.189.999-.594 1.178-1.057 1.52-3.728 2.773-8.085-1.2-8.455-5.44-.325-3.726 2.404-8.25 5.704-8.92.746-.15 1.933-.165 2.54 0 1.036.275 3.273 1.818 2.853 4.135-.181.991-2.041 3.25-3.07 1.856zm117.849 0c-.036-1.163 1.006-1.908.42-3.048-.435-.85-2.02-.507-2.751-.112-1.665.917-3.33 4.092-2.96 6.96.152 1.17.789 2.43 1.693 2.937 1.491.835 3.207.075 5.074.112-.188.999-.593 1.178-1.056 1.52-3.728 2.773-8.086-1.2-8.455-5.44-.325-3.726 2.403-8.25 5.704-8.92.746-.15 1.933-.165 2.541 0 1.035.275 3.271 1.818 2.852 4.135-.174.991-2.034 3.25-3.062 1.856z"/><path d="M82.796 49.231c.434 1.751 2.132 2.377 4.08 1.939 1.331-.297 2.405-1.517 3.537-1.251-.316 1.767-2.603 3.213-4.507 3.425-2.58.28-4.47-.837-5.58-2.627-.647-1.032-1.183-2.354-1.073-4.222.19-3.237 2.823-7.53 5.793-8.335 2.669-.727 4.852.852 4.507 4.34-.081.781-.412 1.696-.75 2.51-.316.75-.61 1.625-.963 2.165-1.022 1.563-2.993 2.158-5.044 2.056zm2.044-7.756c-1.206 1.056-2.61 3.127-2.683 5.02 3.734.875 4.675-2.776 4.72-5.825-.97-.078-1.537.367-2.037.805zm-17.522 2.17c-1.215-1.03-1.453-2.775-3.913-2.536-2.027.195-3.383 2.39-3.592 4.76-.097 1.174 0 2.934 0 4.441 0 1.753.112 3.224-1.416 3.065-2.05-.21-1.416-5.383-1.416-7.724v-2.745c0-.805-.164-1.725.216-2.435.373-.347 1.222-.217 1.632 0 1.834-1.449 6.88-2.34 8.593-.101.477.608 1.215 2.594-.104 3.275zm108.699 0c-1.214-1.03-1.445-2.775-3.918-2.536-2.019.195-3.382 2.39-3.591 4.76-.104 1.174 0 2.934 0 4.441 0 1.753.112 3.224-1.415 3.065-2.041-.21-1.416-5.383-1.416-7.724v-2.745c0-.805-.164-1.725.216-2.435.373-.347 1.222-.217 1.632 0 1.84-1.449 6.876-2.34 8.589-.101.484.608 1.222 2.594-.097 3.275zM53.733 50.013c.107.21 2.333 1.736 2.126 1.895-1.086.832-2.034.724-3.35.102-.588-.275-1.154-.753-1.56-.738-.618.014-1.268.832-1.674 1.056-.849.477-1.827 1.02-3.013 1.056-1.957.058-4.014-.919-4.465-2.43-.2-.652-.191-1.44 0-2.222.818-3.307 5.238-6.953 8.258-8.66.734-.413 1.629-1.02 2.677-1.057 1.338-.05 2.867 1.085 2.79 2.322-.13 2.265-2.905 6.57-1.789 8.676zm-1.774-8.039c-1.567.637-3.265 2.294-4.58 3.697-1.3 1.39-2.814 3.097-2.677 5.072 1.713 1.136 3.747-.065 4.963-1.251 2.914-2.822 3.25-7.518 2.516-7.518h-.222zm25.139 8.039c.115.21 2.333 1.736 2.126 1.895-1.086.832-2.034.724-3.35.102-.589-.275-1.155-.753-1.56-.738-.62.014-1.27.832-1.675 1.056-.849.477-1.828 1.02-3.013 1.056-1.958.058-4.016-.919-4.467-2.43-.191-.652-.191-1.44 0-2.222.818-3.307 5.24-6.953 8.26-8.66.734-.413 1.63-1.02 2.677-1.057 1.339-.05 2.868 1.085 2.792 2.322-.138 2.265-2.907 6.57-1.79 8.676zm-1.782-8.039c-1.568.637-3.266 2.294-4.581 3.697-1.3 1.39-2.815 3.097-2.677 5.072 1.713 1.136 3.747-.065 4.963-1.251 2.915-2.822 3.251-7.518 2.517-7.518h-.222zm22.1-14.789c.107.225 2.332 1.86 2.126 2.03-1.086.893-2.034.776-3.35.11-.588-.295-1.154-.807-1.56-.791-.619.023-1.269.884-1.674 1.132-.849.511-1.828 1.093-3.013 1.131-1.958.062-4.015-.984-4.466-2.604-.198-.698-.19-1.543 0-2.38.81-3.543 5.238-7.45 8.259-9.28.734-.442 1.629-1.093 2.684-1.132 1.338-.046 2.867 1.163 2.79 2.489-.144 2.426-2.913 7.039-1.796 9.295zm-1.782-8.613c-1.567.675-3.265 2.457-4.58 3.961-1.3 1.489-2.814 3.318-2.677 5.435 1.713 1.217 3.747-.07 4.963-1.341 2.906-3.024 3.25-8.055 2.516-8.055h-.222zm19.797 34.614c-1.511.764-2.578-.825-2.775-1.895-.555-3.056 1.877-6.486 1.067-9.26-2.586 1.903-4.28 4.66-6.5 7.03-.723.77-1.402 1.734-2.556 1.894-2.432-1.436.168-5.295-.109-8.251 1.19-1.75 3.929-.023 2.767 2.23 1.863-1.275 4.141-5.042 6.609-5.798 2.023-.62 3.024 1.2 2.878 3.46-.168 2.728-1.863 5.845-1.702 8.588.051.803.438 1.23.321 2.002zM30.88 47.408c-.528.096-.974.65-1.413 1.079-.863.865-1.77 1.737-2.82 2.594-.55.444-1.056 1.08-1.63 1.08-.528 0-1.517-.791-1.629-1.405-.126-.68.298-1.73.543-2.587.61-2.136 1.593-4.916 2.612-6.475.826-.03 1.354.236 1.741.65.208 1.442-.566 2.816-.759 4.206.588-.406 1.28-1.057 2.061-1.833.536-.532 1.25-1.73 2.173-1.722 1.971 0 1.458 4.257 1.74 6.039.224 1.412.871 2.838 2.277 2.483 2.031-.517 3.601-5.684 3.26-8.951-.12-1.101-.552-1.937-1.303-2.484-.164-.17-.855-.37-.543-.65-.037-.185.082-.2.216-.214 2.552-.947 4.114 1.567 4.233 3.991.164 3.334-1.406 8.434-3.37 10.141-3.55 3.083-8.05-1.042-7.388-5.942z"/><path d="M192 41.382c-1.635 2.774-4.208 5.216-3.72 9.837.067.638.48 1.203.217 2.007-3.248 1.065-3.375-3.42-2.85-6.027-.323-.08-.63.246-.878.42-1.387 1-2.677 2.21-4.38 3.173-.653.37-1.515.76-2.19.739-1.83-.05-2.663-1.688-2.408-3.702.308-2.405 1.358-6.708 3.173-6.665.667.015 1.29.718 1.312 1.478.023.826-.712 1.913-1.095 2.854-.405 1.007-.9 1.935-.765 3.173.825 0 1.568-.449 2.303-.847 1.65-.884 3.518-2.13 5.145-3.282.308-.217.811-.456.983-.637.488-.486.818-1.413 1.313-2.116.457-.644 1.012-1.514 1.642-1.695.893-.239 1.853.37 2.198 1.29zm-44.698 3.491c.345.04.727-.362 1.071-.692 1.247-1.172 3.015-3.562 5.678-3.209 1.343.173 2.311 2.745 2.142 5.05.521-.221.815-1.008 1.497-1.031.961-.04 1.665 1.36 2.252 2.406 1.379 2.493 2.392 5.072 6.426 4.71.8-.07 1.453-.723 2.267 0-.257.96.044 1.503-.814 1.817-.954.354-3.169.55-4.24.472-2.971-.228-4.629-3.169-5.781-5.166-1.24 1.156-1.739 3.106-3.213 4.018-.778-.503-1.717-.716-1.922-1.604-.213-.881.235-2.611.425-3.9.198-1.369.514-2.627.11-3.673-1.32-.118-2.039.904-2.787 1.722-1.409 1.541-2.392 3.154-3.639 5.285-.462.786-1.188 2.524-1.819 2.642-1.056.204-1.262-1.007-1.717-1.722.015-1.085.815-3.492 1.284-6.087.418-2.288.088-5.591 1.717-5.859.748-.118 1.401.637 1.496 1.038.33 1.377-.66 2.21-.433 3.783zM66.9 13.59c1.679.23 2.522.074 3.995.631.47.179 1.195.603 1.232 1.13-2.111.276-3.534.038-5.447.507-.696 4.685-.682 10.093-1.231 14.942-1.445.007-1.95-1.68-2.676-2.715-1.459-2.082-2.888-3.979-4.354-6.448-.697-1.175-1.84-2.864-1.452-4.188.697-2.38 4.582-3.012 7.36-3.622.293-1.718.535-4.001.894-6.114.374-2.201.85-4.864 2.009-5.66.696.253 1.627.64 1.781 1.354.118.558-.315 1.703-.557 2.603-.572 2.172-1.356 5.259-1.554 7.58zm-7.25 5.317c-.036 1.02 1.166 2.402 1.782 3.392a60.35 60.35 0 001.004 1.584c.33.506.528 1.287 1.114 1.242.11-3.02.381-5.876.557-8.828-1.81.275-4.413 1.16-4.457 2.61zM7.913 24.158c-.552 1.199-1.807 1.675-1.845 3.39 1.648.745 4.612-.97 4.831-2.222.31-1.798-1.429-3.535-2.185-4.795-.96-1.59-2.102-3.42-2.071-5.848.03-2.152 1.482-3.412 3.795-3.39 2.291.024 4.4 1.338 4.718 2.337.182.568.22 2.874-1.61 2.344-.847-.254-.492-1.468-1.036-1.99-.741-.715-2.934-.347-3.221.822-.423 1.744 1.3 4.042 1.958 5.149 1.036 1.744 2.896 4.441 2.072 7.016-.151.484-.983 1.49-1.61 1.99-1.437 1.145-3.554 2.144-6.095 1.752-1.52-.23-3.054-1.506-2.419-3.512.537-1.675 2.495-4.472 4.718-3.043zm124.131-11.009c-.085.928.256 2.277-.356 2.683-.588.353-1.478-.03-1.764-.583-.233-.452.1-.858-.356-1.288-.774-.72-3.011-.337-3.297.82-.41 1.634 1.068 3.604 2.004 5.137 1.029 1.687 3.243 5.137 1.881 7.467-.975 1.679-5.325 4.423-8.598 3.036-1.076-.46-2.075-1.61-1.533-3.266.534-1.617 2.415-4.393 4.829-3.028-.565 1.196-1.849 1.671-1.888 3.38 1.664.737 4.721-.934 4.945-2.215.031-.192-.038-.682-.116-1.05-.565-2.492-4.303-5.49-4.241-9.568.031-2.046 1.324-3.403 3.885-3.38 1.974.007 3.104.697 4.605 1.855zm-92.74 2.641c-.381.085-1.026.254-1.45.43-1.949.805-4.834 4.522-4.79 7.407.014 1.177.586 2.934 1.78 3.11 1.757.26 3.017-1.234 3.786-2.363.44-.635.981-1.446 1.113-1.932.271-.988.286-2.377-.337-3.005-1.575-.353-1.245 3.251-2.563 3.216-.989-.028-1.201-2.39-.894-3.329.293-.903 1.656-2.257 2.9-2.469.55-.091 1.011.071 1.56 0 1.575.98 2.432 2.13 2.227 4.402-.3 3.413-3.413 6.996-6.57 7.405-1.78.233-2.76-.028-3.566-.641-1.114-.854-1.904-2.624-2.007-3.971a7.972 7.972 0 01.11-1.933c.468-2.673 2.93-6.369 5.236-7.836.982-.628 2.11-1.128 3.677-.86 1.07.183 2.666 1.523 2.117 2.468-.447.797-1.612.268-2.33-.099z"/><path d="M20.618 14.281c.153.33.153.81 0 1.139 2.861 1.175 6.215 2.702 8.308 4.896.715.75 1.73 2.097 1.523 3.534-.246 1.707-2.616 3.13-4.8 3.415-2.024.27-4.747-.135-5.031-1.707-.362-1.992 2.754-5.204 4.8-3.76.077 1.191-1.67 1.558-1.754 2.966.615.344 1.623.007 2.338-.232 3.308-1.064.57-3.422-1.292-4.672-1.508-1.019-3.03-1.723-4.33-2.052-.662 1.43-.547 3.654-.47 5.354.223 4.844.915 9.868 1.638 14.128-.515.427-1.784 1.041-2.577.457-.615-.457-.93-3.474-1.169-5.017-.577-3.766-.862-7.322-1.639-10.706-.484-2.112-2.2-6.672.816-6.949.515-.651.454-1.542 1.408-1.707.838-.142 1.615.457 2.23.913zm91.599 10.302c.343 1.419 1.553 2.073 2.771 2.136 1.83.093 3.405-1.614 4.885-1.419-.642 2.003-2.683 3.312-4.885 3.437-4.229.234-7.277-3.803-5.993-8.658.488-1.847 2.216-4.598 3.769-5.689.787-.553 2.508-1.309 3.996-.95 1.458.358 2.471 2.166 2.216 4.504-.204 1.87-1.568 4.66-2.442 5.455-.992.912-2.399 1.255-4.317 1.184zm.999-6.405c-.729.911-1.626 2.073-1.553 3.678 3.595.834 4.71-2.634 4.55-5.814-1.451-.03-2.319 1.286-2.997 2.136zm-57.95.767c-1.139-.347-1.079-1.604-1.928-2.088-1.37-.796-3.111-.268-4.08.657-.401.383-.952.875-1.13 1.431-.76 2.299-.559 5.825-.455 8.912-.476.455-.64.96-1.474.881-1.585-.144-1.496-3.382-1.362-5.276.097-1.33.06-3.02 0-4.401-.067-1.446-.417-2.812.342-3.412.581-.224.908.037 1.474.109 2.062-1.576 7.437-2.219 8.837.325.387.694.707 2.212-.224 2.862z"/><path d="M106.434 9.803c.631-3.035 1.312-6.025 1.837-9.112-.27-.642-1.227-.85-2.049-.567-.603.82-.752 1.998-.972 3.065-.496 2.378-.999 4.765-1.467 7.173l-.475 2.543c-.674 3.713-1.227 7.509-1.51 11.506-.17 2.341-.738 5.988 1.184 6.353 1.453.276 2.722-1.104 3.559-1.812 1.042-.887 2.212-1.685 2.155-3.065-1.609-.09-2.701 1.91-4.424 1.7-.17-5.003.617-9.611 1.404-13.951.092-.515.191-1.03.29-1.544l.468-2.29zm-4.135-4.691l-4.837-1.986a.747.747 0 00-.952.42.72.72 0 00.43.931l2.11.945c-31.768.82-32.002 20.452-32.002 20.452.136.642 1.141 1.61 1.76 1.58.432-.022 1.09-.583 1.61-1.012 1.588-1.284 2.722-2.746 4.143-3.817.128 2.784.793 5.058 2.418 6.29.802.614 1.897 1.027 3.22.79 3.28-.582 5.964-7.515 5.404-11.798-.068-.531-.264-1.292-.46-1.683-.552-1.13-2.964-3.094-4.143-1.344.665.59 1.111.768 1.497 1.462 1.232 2.223-.076 7.376-1.27 9.215-.393.605-1.194 1.329-1.837 1.35-2.637.075-1.95-4.068-2.297-6.519-.114-.768-.62-2.126-1.497-2.134-.809-.007-1.738 1.137-2.297 1.684-.81.79-1.928 2.207-2.147 1.816C73.986 8.693 95.074 6.33 99.186 5.991l-1.89 1.24a.71.71 0 00-.287.982.75.75 0 001.005.288l4.353-2.562a.444.444 0 00.235-.428.47.47 0 00-.303-.399z"/></g><defs><clipPath id="clip0"><path fill="#fff" d="M0 0h192v77H0z"/></clipPath></defs></svg>
